<svg xmlns="http://www.w3.org/2000/svg">
    <symbol id="eye" viewBox="0 0 24 24">
        <path fill-rule="evenodd" clip-rule="evenodd"
              d="M1.79882 1.59857C2.13076 1.26662 2.66895 1.26662 3.0009 1.59857L22.2009 20.7986C22.5329 21.1306 22.5329 21.6687 22.2009 22.0007C21.869 22.3326 21.3308 22.3326 20.9989 22.0007L17.6841 18.6859C17.5784 18.5802 17.4171 18.5533 17.2828 18.619C15.6127 19.4359 13.8125 19.8496 11.9999 19.8496C7.45731 19.8496 2.97413 17.2488 0.439591 12.1798C0.319941 11.9405 0.319941 11.6588 0.439591 11.4195C1.53705 9.22459 2.99942 7.49395 4.67072 6.23685C4.75174 6.17591 4.80235 6.08284 4.80947 5.98171C4.81658 5.88059 4.7795 5.78134 4.70782 5.70966L1.79882 2.80065C1.46687 2.46871 1.46687 1.93052 1.79882 1.59857ZM6.42541 7.42725C6.30508 7.30692 6.11564 7.29057 5.97648 7.38851C4.53807 8.40084 3.25445 9.81207 2.24915 11.6303C2.19088 11.7357 2.19088 11.8636 2.24915 11.969C4.54945 16.1294 8.30308 18.1496 11.9999 18.1496C13.2595 18.1496 14.5279 17.9149 15.7439 17.4392C15.8539 17.3961 15.9348 17.3005 15.959 17.1849C15.9832 17.0693 15.9474 16.9493 15.8639 16.8657L13.7995 14.8013C13.6945 14.6964 13.5348 14.669 13.4009 14.7331C12.9771 14.9359 12.5023 15.0496 11.9999 15.0496C10.2049 15.0496 8.74987 13.5946 8.74987 11.7996C8.74987 11.2973 8.86362 10.8224 9.06643 10.3986C9.1305 10.2647 9.10316 10.105 8.99821 10L6.42541 7.42725Z"
        />
        <path d="M11.7365 5.45304L10.1739 3.8905C10.7781 3.79672 11.3882 3.74961 11.9998 3.74961C16.5424 3.74961 21.0256 6.35042 23.5601 11.4195C23.6798 11.6588 23.6798 11.9405 23.5601 12.1798C22.9818 13.3363 22.3023 14.3639 21.5444 15.261L20.338 14.0546C20.8524 13.4313 21.3263 12.7363 21.7506 11.969C21.8088 11.8636 21.8088 11.7357 21.7506 11.6303C19.4503 7.4699 15.6966 5.44962 11.9998 5.44962C11.9121 5.44962 11.8243 5.45076 11.7365 5.45304Z"
        />
    </symbol>
    <symbol id="cross" viewBox="0 0 48 48">
        <path d="M40.6154 37.8456C41.3801 38.6103 41.3801 39.8501 40.6154 40.6148C39.8507 41.3796 38.6108 41.3796 37.8461 40.6149L24 26.7687L10.1538 40.6149C9.38913 41.3796 8.14931 41.3796 7.3846 40.6148C6.6199 39.8501 6.6199 38.6103 7.3846 37.8456L21.2308 23.9995L7.38456 10.1533C6.61986 9.3886 6.61986 8.14878 7.38456 7.38407C8.14926 6.61937 9.38909 6.61937 10.1538 7.38407L24 21.2303L37.8462 7.38407C38.6109 6.61937 39.8507 6.61938 40.6154 7.38408C41.3801 8.14878 41.3801 9.38861 40.6154 10.1533L26.7692 23.9995L40.6154 37.8456Z"
        />
    </symbol>
</svg>