<svg xmlns="http://www.w3.org/2000/svg">
    <symbol id="eye" viewBox="0 0 24 24">
        <path fill-rule="evenodd" clip-rule="evenodd"
              d="M1.79882 1.59857C2.13076 1.26662 2.66895 1.26662 3.0009 1.59857L22.2009 20.7986C22.5329 21.1306 22.5329 21.6687 22.2009 22.0007C21.869 22.3326 21.3308 22.3326 20.9989 22.0007L17.6841 18.6859C17.5784 18.5802 17.4171 18.5533 17.2828 18.619C15.6127 19.4359 13.8125 19.8496 11.9999 19.8496C7.45731 19.8496 2.97413 17.2488 0.439591 12.1798C0.319941 11.9405 0.319941 11.6588 0.439591 11.4195C1.53705 9.22459 2.99942 7.49395 4.67072 6.23685C4.75174 6.17591 4.80235 6.08284 4.80947 5.98171C4.81658 5.88059 4.7795 5.78134 4.70782 5.70966L1.79882 2.80065C1.46687 2.46871 1.46687 1.93052 1.79882 1.59857ZM6.42541 7.42725C6.30508 7.30692 6.11564 7.29057 5.97648 7.38851C4.53807 8.40084 3.25445 9.81207 2.24915 11.6303C2.19088 11.7357 2.19088 11.8636 2.24915 11.969C4.54945 16.1294 8.30308 18.1496 11.9999 18.1496C13.2595 18.1496 14.5279 17.9149 15.7439 17.4392C15.8539 17.3961 15.9348 17.3005 15.959 17.1849C15.9832 17.0693 15.9474 16.9493 15.8639 16.8657L13.7995 14.8013C13.6945 14.6964 13.5348 14.669 13.4009 14.7331C12.9771 14.9359 12.5023 15.0496 11.9999 15.0496C10.2049 15.0496 8.74987 13.5946 8.74987 11.7996C8.74987 11.2973 8.86362 10.8224 9.06643 10.3986C9.1305 10.2647 9.10316 10.105 8.99821 10L6.42541 7.42725Z"
        />
        <path d="M11.7365 5.45304L10.1739 3.8905C10.7781 3.79672 11.3882 3.74961 11.9998 3.74961C16.5424 3.74961 21.0256 6.35042 23.5601 11.4195C23.6798 11.6588 23.6798 11.9405 23.5601 12.1798C22.9818 13.3363 22.3023 14.3639 21.5444 15.261L20.338 14.0546C20.8524 13.4313 21.3263 12.7363 21.7506 11.969C21.8088 11.8636 21.8088 11.7357 21.7506 11.6303C19.4503 7.4699 15.6966 5.44962 11.9998 5.44962C11.9121 5.44962 11.8243 5.45076 11.7365 5.45304Z"
        />
    </symbol>
    <symbol id="cross" viewBox="0 0 48 48">
        <path d="M40.6154 37.8456C41.3801 38.6103 41.3801 39.8501 40.6154 40.6148C39.8507 41.3796 38.6108 41.3796 37.8461 40.6149L24 26.7687L10.1538 40.6149C9.38913 41.3796 8.14931 41.3796 7.3846 40.6148C6.6199 39.8501 6.6199 38.6103 7.3846 37.8456L21.2308 23.9995L7.38456 10.1533C6.61986 9.3886 6.61986 8.14878 7.38456 7.38407C8.14926 6.61937 9.38909 6.61937 10.1538 7.38407L24 21.2303L37.8462 7.38407C38.6109 6.61937 39.8507 6.61938 40.6154 7.38408C41.3801 8.14878 41.3801 9.38861 40.6154 10.1533L26.7692 23.9995L40.6154 37.8456Z"
        />
    </symbol>
    <symbol id="home" viewBox="0 0 576 512">
        <path d="M575.8 255.5c0 18-15 32.1-32 32.1h-32l.7 160.2c0 2.7-.2 5.4-.5 8.1V472c0 22.1-17.9 40-40 40H456c-1.1 0-2.2 0-3.3-.1c-1.4 .1-2.8 .1-4.2 .1H416 392c-22.1 0-40-17.9-40-40V448 384c0-17.7-14.3-32-32-32H256c-17.7 0-32 14.3-32 32v64 24c0 22.1-17.9 40-40 40H160 128.1c-1.5 0-3-.1-4.5-.2c-1.2 .1-2.4 .2-3.6 .2H104c-22.1 0-40-17.9-40-40V360c0-.9 0-1.9 .1-2.8V287.6H32c-18 0-32-14-32-32.1c0-9 3-17 10-24L266.4 8c7-7 15-8 22-8s15 2 21 7L564.8 231.5c8 7 12 15 11 24z"/>
    </symbol>
    <symbol id="book" viewBox="0 0 576 512">
        <path d="M249.6 471.5c10.8 3.8 22.4-4.1 22.4-15.5V78.6c0-4.2-1.6-8.4-5-11C247.4 52 202.4 32 144 32C93.5 32 46.3 45.3 18.1 56.1C6.8 60.5 0 71.7 0 83.8V454.1c0 11.9 12.8 20.2 24.1 16.5C55.6 460.1 105.5 448 144 448c33.9 0 79 14 105.6 23.5zm76.8 0C353 462 398.1 448 432 448c38.5 0 88.4 12.1 119.9 22.6c11.3 3.8 24.1-4.6 24.1-16.5V83.8c0-12.1-6.8-23.3-18.1-27.6C529.7 45.3 482.5 32 432 32c-58.4 0-103.4 20-123 35.6c-3.3 2.6-5 6.8-5 11V456c0 11.4 11.7 19.3 22.4 15.5z"/>
    </symbol>
    <symbol id="bell" viewBox="0 0 448 512">
        <path d="M224 0c-17.7 0-32 14.3-32 32V51.2C119 66 64 130.6 64 208v18.8c0 47-17.3 92.4-48.5 127.6l-7.4 8.3c-8.4 9.4-10.4 22.9-5.3 34.4S19.4 416 32 416H416c12.6 0 24-7.4 29.2-18.9s3.1-25-5.3-34.4l-7.4-8.3C401.3 319.2 384 273.9 384 226.8V208c0-77.4-55-142-128-156.8V32c0-17.7-14.3-32-32-32zm45.3 493.3c12-12 18.7-28.3 18.7-45.3H224 160c0 17 6.7 33.3 18.7 45.3s28.3 18.7 45.3 18.7s33.3-6.7 45.3-18.7z"/>
    </symbol>
    <symbol id="user" viewBox="0 0 448 512">
        <path d="M224 256A128 128 0 1 0 224 0a128 128 0 1 0 0 256zm-45.7 48C79.8 304 0 383.8 0 482.3C0 498.7 13.3 512 29.7 512H418.3c16.4 0 29.7-13.3 29.7-29.7C448 383.8 368.2 304 269.7 304H178.3z"/>
    </symbol>
    <symbol id="search" viewBox="0 0 512 512">
        <path d="M416 208c0 45.9-14.9 88.3-40 122.7L502.6 457.4c12.5 12.5 12.5 32.8 0 45.3s-32.8 12.5-45.3 0L330.7 376c-34.4 25.2-76.8 40-122.7 40C93.1 416 0 322.9 0 208S93.1 0 208 0S416 93.1 416 208zM208 352a144 144 0 1 0 0-288 144 144 0 1 0 0 288z"/>
    </symbol>
    <symbol id="heart" viewBox="0 0 512 512">
        <path d="M225.8 468.2l-2.5-2.3L48.1 303.2C17.4 274.7 0 234.7 0 192.8v-3.3c0-70.4 50-130.8 119.2-144C158.6 37.9 198.9 47 231 69.6c9 6.4 17.4 13.8 25 22.3c4.2-4.8 8.7-9.2 13.5-13.3c3.7-3.2 7.5-6.2 11.5-9c0 0 0 0 0 0C313.1 47 353.4 37.9 392.8 45.4C462 58.6 512 119.1 512 189.5v3.3c0 41.9-17.4 81.9-48.1 110.4L288.7 465.9l-2.5 2.3c-8.2 7.6-19 11.9-30.2 11.9s-22-4.2-30.2-11.9zM239.1 145c-.4-.3-.7-.7-1-1.1l-17.8-20c0 0-.1-.1-.1-.1c0 0 0 0 0 0c-23.1-25.9-58-37.7-92-31.2C81.6 101.5 48 142.1 48 189.5v3.3c0 28.5 11.9 55.8 32.8 75.2L256 430.7 431.2 268c20.9-19.4 32.8-46.7 32.8-75.2v-3.3c0-47.3-33.6-88-80.1-96.9c-34-6.5-69 5.4-92 31.2c0 0 0 0-.1 .1s0 0-.1 .1l-17.8 20c-.3 .4-.7 .7-1 1.1c-4.5 4.5-10.6 7-16.9 7s-12.4-2.5-16.9-7z"/>
    </symbol>
</svg>